<svg width="48" height="48" viewBox="0 0 48 48" fill="none" xmlns="http://www.w3.org/2000/svg">
<path d="M21 5.25C18.9323 5.25 17.25 6.93225 17.25 9V11.25H9.75C8.922 11.25 8.25 11.922 8.25 12.75C8.25 13.578 8.922 14.25 9.75 14.25H11.332L12.5947 36.999C12.7282 39.3825 14.7002 41.25 17.0874 41.25H30.9126C33.2991 41.25 35.2718 39.3825 35.4053 36.999L36.668 14.25H38.25C39.078 14.25 39.75 13.578 39.75 12.75C39.75 11.922 39.078 11.25 38.25 11.25H30.75V9C30.75 6.93225 29.0677 5.25 27 5.25H21ZM21 8.25H27C27.414 8.25 27.75 8.58675 27.75 9V11.25H20.25V9C20.25 8.58675 20.586 8.25 21 8.25ZM14.335 14.25H33.665L32.4097 36.832C32.3654 37.627 31.7083 38.25 30.9126 38.25H17.0874C16.2924 38.25 15.6346 37.6277 15.5903 36.8335L14.335 14.25ZM24 17.4375C23.2747 17.4375 22.6875 18.0255 22.6875 18.75V33.75C22.6875 34.4745 23.2747 35.0625 24 35.0625C24.7253 35.0625 25.3125 34.4745 25.3125 33.75V18.75C25.3125 18.0255 24.7253 17.4375 24 17.4375ZM18.4819 17.439C17.7582 17.4645 17.1916 18.0709 17.2163 18.7954L17.7393 33.8599C17.764 34.5686 18.3468 35.127 19.0503 35.127C19.066 35.127 19.0814 35.127 19.0972 35.127C19.8209 35.1015 20.3875 34.4935 20.3628 33.769L19.8398 18.7046C19.8143 17.9808 19.2049 17.4217 18.4819 17.439ZM29.5166 17.439C28.7914 17.4187 28.1857 17.9808 28.1602 18.7046L27.6372 33.769C27.6117 34.4935 28.1783 35.1015 28.9028 35.127C28.9186 35.1277 28.934 35.127 28.9497 35.127C29.6532 35.127 30.236 34.5686 30.2607 33.8599L30.7837 18.7954C30.8092 18.0709 30.2411 17.4645 29.5166 17.439Z" fill="#292929"/>
</svg>
