<svg width="24" height="24" viewBox="0 0 24 24" fill="none" xmlns="http://www.w3.org/2000/svg">
<g clip-path="url(#clip0_1_4)">
<path d="M12.0039 1C9.25433 1 6.99805 3.24847 6.99805 5.99805C6.99805 8.74763 9.25433 11.0039 12.0039 11.0039C14.7535 11.0039 17 8.74763 17 5.99805C17 3.24847 14.7535 1 12.0039 1ZM12.0039 3.00195C13.6726 3.00195 15 4.32935 15 5.99805C15 7.66675 13.6726 9.00195 12.0039 9.00195C10.3352 9.00195 8.99805 7.66675 8.99805 5.99805C8.99805 4.32935 10.3352 3.00195 12.0039 3.00195ZM8.00195 12C3 12 2 15 2 19C2 20 3 21 4 21H20C21 21 22 20 22 19C22 15 21 12 15.9961 12H8.00195ZM8.00195 14H15.9961C19 14 19.998 15.9802 19.998 18.998H4.00195C4 16 5 14 8.00195 14Z" fill="black"/>
<g clip-path="url(#clip1_1_4)">
<path d="M0.928015 24C0.806586 24.0007 0.686213 23.9774 0.573798 23.9315C0.461383 23.8855 0.359137 23.8179 0.272923 23.7323C0.186443 23.6465 0.117802 23.5445 0.0709594 23.432C0.0241169 23.3195 0 23.1989 0 23.0771C0 22.9552 0.0241169 22.8346 0.0709594 22.7221C0.117802 22.6096 0.186443 22.5076 0.272923 22.4218L22.4169 0.271426C22.5906 0.097635 22.8263 0 23.072 0C23.3177 0 23.5533 0.097635 23.7271 0.271426C23.9008 0.445218 23.9984 0.680929 23.9984 0.926707C23.9984 1.17249 23.9008 1.4082 23.7271 1.58199L1.58311 23.7323C1.49689 23.8179 1.39465 23.8855 1.28223 23.9315C1.16982 23.9774 1.04944 24.0007 0.928015 24Z" fill="black"/>
<path d="M23.0721 24C22.9507 24.0007 22.8303 23.9774 22.7179 23.9315C22.6055 23.8855 22.5032 23.8179 22.417 23.7323L0.273057 1.58199C0.0993157 1.4082 0.00170898 1.17249 0.00170898 0.926707C0.00170899 0.680929 0.0993157 0.445217 0.273057 0.271426C0.446798 0.0976348 0.682442 1.83119e-09 0.928149 0C1.17386 -1.83119e-09 1.4095 0.0976348 1.58324 0.271426L23.7272 22.4218C23.8137 22.5076 23.8823 22.6096 23.9292 22.7221C23.976 22.8346 24.0001 22.9552 24.0001 23.0771C24.0001 23.1989 23.976 23.3195 23.9292 23.432C23.8823 23.5445 23.8137 23.6465 23.7272 23.7323C23.641 23.8179 23.5388 23.8855 23.4263 23.9315C23.3139 23.9774 23.1935 24.0007 23.0721 24Z" fill="black"/>
</g>
</g>
<defs>
<clipPath id="clip0_1_4">
<rect width="24" height="24" fill="white"/>
</clipPath>
<clipPath id="clip1_1_4">
<rect width="32" height="32" fill="white" transform="translate(-4 -4)"/>
</clipPath>
</defs>
</svg>
